<?xml version="1.0" standalone="no"?><!DOCTYPE svg PUBLIC "-//W3C//DTD SVG 1.1//EN" "http://www.w3.org/Graphics/SVG/1.1/DTD/svg11.dtd"><svg t="1700128321208" class="icon" viewBox="0 0 1024 1024" version="1.1" xmlns="http://www.w3.org/2000/svg" p-id="6548" xmlns:xlink="http://www.w3.org/1999/xlink" width="200" height="200"><path d="M224 704c-8 0-16-3.2-22.4-9.6l-160-160c-12.8-12.8-12.8-32 0-44.8l160-160c12.8-12.8 32-12.8 44.8 0 12.8 12.8 12.8 32 0 44.8L108.8 512l137.6 137.6c12.8 12.8 12.8 32 0 44.8-6.4 6.4-14.4 9.6-22.4 9.6z m416-160H80c-17.6 0-32-14.4-32-32s14.4-32 32-32h560c17.6 0 32 14.4 32 32s-14.4 32-32 32z m192 384H480c-52.8 0-96-43.2-96-96V704c0-17.6 14.4-32 32-32s32 14.4 32 32v128c0 17.6 14.4 32 32 32h352c17.6 0 32-14.4 32-32V192c0-17.6-14.4-32-32-32H480c-17.6 0-32 14.4-32 32v128c0 17.6-14.4 32-32 32s-32-14.4-32-32V192c0-52.8 43.2-96 96-96h352c52.8 0 96 43.2 96 96v640c0 52.8-43.2 96-96 96z" fill="currentColor" p-id="6549"></path></svg>