<?xml version="1.0" standalone="no"?><!DOCTYPE svg PUBLIC "-//W3C//DTD SVG 1.1//EN" "http://www.w3.org/Graphics/SVG/1.1/DTD/svg11.dtd"><svg t="1722949376660" viewBox="0 0 1024 1024" version="1.1" xmlns="http://www.w3.org/2000/svg" class="icon" fill="currentColor" p-id="1474" xmlns:xlink="http://www.w3.org/1999/xlink" width="200" height="200"><path d="M867.1 141.17H156.08c-17.67 0-32 14.33-32 32s14.33 32 32 32H867.1c17.67 0 32-14.33 32-32s-14.33-32-32-32zM867.92 367.52H403.2c-17.67 0-32 14.33-32 32s14.33 32 32 32h464.73c17.67 0 32-14.33 32-32s-14.33-32-32.01-32zM867.92 573.87H403.2c-17.67 0-32 14.33-32 32s14.33 32 32 32h464.73c17.67 0 32-14.33 32-32s-14.33-32-32.01-32zM867.92 800.22H156.9c-17.67 0-32 14.33-32 32s14.33 32 32 32h711.02c17.67 0 32-14.33 32-32 0-17.68-14.32-32-32-32zM137.47 637.87V367.52l174.54 148.15z" p-id="1475"></path></svg>