<?xml version="1.0" standalone="no"?><!DOCTYPE svg PUBLIC "-//W3C//DTD SVG 1.1//EN" "http://www.w3.org/Graphics/SVG/1.1/DTD/svg11.dtd"><svg t="1725260824672" class="icon" viewBox="0 0 1024 1024" version="1.1" xmlns="http://www.w3.org/2000/svg" p-id="4451" xmlns:xlink="http://www.w3.org/1999/xlink" width="200" height="200"><path d="M366.08 592.603429h-69.193143c-25.965714 0-31.744 5.778286-31.744 34.596571v72.045714c0 28.818286 5.778286 34.596571 31.744 34.596572h69.193143c25.892571 0 31.670857-5.778286 31.670857-34.596572v-72.045714c2.925714-28.891429-2.925714-34.596571-31.670857-34.596571z" p-id="4452"></path><path d="M818.907429 382.098286l69.193142 46.08 23.04 14.482285c14.482286 8.630857 31.744 2.925714 40.374858-11.556571 11.556571-14.409143 8.630857-31.670857-5.778286-43.227429l-412.233143-296.96c-2.925714-2.925714-5.778286-5.778286-11.556571-8.630857-14.409143-5.851429-31.670857-2.925714-37.449143 11.483429l-409.380572 296.96c-11.556571 11.556571-14.482286 31.744-5.851428 43.300571 8.704 14.409143 25.965714 20.114286 40.374857 11.483429l28.891428-20.187429v487.277715c0 17.261714 14.409143 31.744 31.670858 31.744a32.036571 32.036571 0 0 0 31.744-31.744V379.245714L507.538286 157.257143l311.369143 224.841143z" p-id="4453"></path><path d="M366.08 771.364571h-69.193143c-25.965714 0-31.744 5.705143-31.744 34.596572v72.045714c0 28.818286 5.778286 34.596571 31.744 34.596572h69.193143c25.892571 0 31.670857-5.778286 31.670857-34.596572v-72.118857c2.925714-28.818286-2.925714-34.596571-31.670857-34.596571z m0-357.522285h-69.193143c-25.965714 0-31.744 5.778286-31.744 34.596571v72.045714c0 28.891429 5.778286 34.596571 31.744 34.596572h69.193143c25.892571 0 31.670857-5.778286 31.670857-34.596572v-72.045714c2.925714-28.818286-2.925714-34.596571-31.670857-34.596571z m475.648 138.386285a46.299429 46.299429 0 0 0-31.670857-14.409142 46.299429 46.299429 0 0 0-31.744 14.409142 47.762286 47.762286 0 0 0-14.409143 34.596572v34.596571h-100.937143v-34.596571c0-11.556571-5.705143-23.04-14.336-34.596572a46.299429 46.299429 0 0 0-31.744-14.409142A46.372571 46.372571 0 0 0 585.142857 552.228571L487.131429 658.870857a63.634286 63.634286 0 0 0-17.261715 43.227429c0 17.334857 8.630857 31.744 20.187429 43.300571l98.011428 109.568a46.299429 46.299429 0 0 0 31.670858 14.409143 42.422857 42.422857 0 0 0 43.300571-43.300571v-43.227429h98.011429v43.227429c0 23.113143 17.261714 43.300571 40.374857 43.300571h2.925714a46.299429 46.299429 0 0 0 31.670857-14.409143l98.011429-109.568c11.556571-11.556571 20.187429-25.965714 23.04-43.300571a58.660571 58.660571 0 0 0-17.261715-43.154286l-98.011428-106.788571z m60.562286 167.204572l-86.454857 95.085714v-46.08c0-14.409143-11.556571-25.965714-23.04-25.965714-37.522286-2.925714-115.346286-2.925714-152.868572 0-14.409143 0-23.04 11.556571-23.04 25.965714v46.08l-86.454857-95.085714c-2.925714-2.925714-5.851429-5.778286-5.851429-8.630857 0-2.925714 0-2.925714 2.925715-5.851429l2.925714-2.852571 89.380571-98.011429v43.227429c2.852571 11.556571 11.483429 20.187429 23.04 25.965714h147.017143c11.556571-5.778286 20.187429-14.409143 23.113143-25.965714v-43.154286l89.307429 98.011429 2.925714 2.852571c2.925714 0 2.925714 2.925714 2.925714 5.778286-2.925714 2.925714-2.925714 5.778286-5.851428 8.630857z" p-id="4454"></path></svg>