<?xml version="1.0" standalone="no"?><!DOCTYPE svg PUBLIC "-//W3C//DTD SVG 1.1//EN" "http://www.w3.org/Graphics/SVG/1.1/DTD/svg11.dtd"><svg t="1693604291282" class="icon" viewBox="0 0 1024 1024" version="1.1" xmlns="http://www.w3.org/2000/svg" p-id="21001" xmlns:xlink="http://www.w3.org/1999/xlink" width="200" height="200"><path d="M849.92 680.6784c1.9968 1.4592 3.9424 2.7648 5.7344 4.2496 19.712 16 26.5984 36.5312 21.3248 61.184a79.8208 79.8208 0 0 1-4.224 12.8c-14.0032 34.9952-52.0448 41.9328-75.2896 34.1504a44.3904 44.3904 0 0 1-26.7008-22.2208c-0.8192-1.5872-1.7152-3.1744-2.56-4.736 0-0.1536-0.2816-0.2048-0.5632-0.4096a49.1776 49.1776 0 0 0-5.12 0c-18.4832 1.92-36.9664 3.8144-55.3984 5.9392-12.3648 1.4336-24.6784 3.2-36.992 4.864a62.4896 62.4896 0 0 1-37.2736-6.4 8.5504 8.5504 0 0 0-8.9344 0.2304A291.2 291.2 0 0 1 527.36 802.176a224.4864 224.4864 0 0 1-96.4096-6.3232 10.24 10.24 0 0 0-9.0624 1.3056c-7.8848 4.7104-16 9.0368-24.0384 13.5168L391.68 814.08c5.12 1.1008 9.088 1.8432 13.0048 2.7904a63.0528 63.0528 0 0 1 22.1184 9.7792 37.0688 37.0688 0 0 1 10.9568 49.4592 58.368 58.368 0 0 1-15.36 17.2288 123.9296 123.9296 0 0 1-44.672 21.1968c-23.8592 6.4512-47.9744 8.4224-72.2432 2.56a158.5408 158.5408 0 0 1-51.9168-22.272 108.928 108.928 0 0 1-12.3136-9.7024c-18.304-16.4864-23.04-36.7872-16.2048-60.032 4.8128-16.5632 14.6944-29.9776 26.5472-42.1632l7.168-7.3216s0-0.3584 0.1792-1.0496c-3.0208-1.5104-6.1696-3.1488-9.344-4.7104-2.1248-1.0496-3.3536 0.5632-4.7104 1.6896-6.1184 5.12-12.3904 9.9584-18.3296 15.2064-19.7376 17.536-42.496 30.3872-65.792 42.3424a37.5808 37.5808 0 0 1-11.776 3.6864 20.0448 20.0448 0 0 1-23.04-13.824 67.3536 67.3536 0 0 1-4.5568-22.1696c0-1.5872-0.128-3.1744-0.256-5.8112-1.9968 1.3824-3.3792 2.3296-4.7104 3.328-13.4144 10.0864-26.7008 20.3264-40.2432 30.2336a93.44 93.44 0 0 1-14.7456 8.9088 35.4816 35.4816 0 0 1-10.9056 2.8928 22.4256 22.4256 0 0 1-24.2688-14.1568c-4.0704-9.3184-3.7632-18.9184-1.7664-28.672a132.608 132.608 0 0 1 27.3152-57.0368 201.5232 201.5232 0 0 1 43.904-39.8848 293.3504 293.3504 0 0 1 51.712-28.16l6.0416-2.56c-0.6144-4.0192-1.2544-7.68-1.7664-11.4432a107.3664 107.3664 0 0 1 12.8-69.4016c15.8464-28.3648 38.8096-48.9984 67.456-63.6672a251.8272 251.8272 0 0 1 69.632-22.8096c38.7328-7.168 77.7984-7.9104 116.992-5.7088a754.3296 754.3296 0 0 1 127.232 18.2528 48.1536 48.1536 0 0 0 5.12 0.512l-4.6848-7.0144c-13.7216-20.48-24.9088-42.2144-31.0784-66.2784A116.5568 116.5568 0 0 1 519.936 363.52c17.1008-42.1888 47.5136-70.7328 88.9856-88.1408a234.4704 234.4704 0 0 1 69.6832-16.4864A178.8672 178.8672 0 0 1 765.44 272.128c26.4704 11.0336 47.616 28.3136 61.1584 54.0672a120.32 120.32 0 0 1 13.5424 51.3792c2.8672 65.3568-23.7824 116.7616-74.9312 156.16-16.7936 12.9536-35.0208 23.808-55.6288 29.3888-7.4496 2.0224-11.4944 5.2736-12.8 12.672a88.4992 88.4992 0 0 1-3.072 10.24h5.4528c23.2448-1.2544 46.464-2.7648 69.7088-3.7632 19.2768-0.8448 38.5792-1.408 57.8816-1.4592a69.248 69.248 0 0 1 19.6352 3.1232A41.344 41.344 0 0 1 875.52 613.5552a60.16 60.16 0 0 1 1.2288 30.4896A52.9152 52.9152 0 0 1 855.04 676.096l-4.7616 3.5328s-0.0512 0.3072-0.3584 1.0496zM606.72 752.64a9.5488 9.5488 0 0 0-0.6656-1.8432c-0.9984-1.28-2.048-2.56-3.0976-3.7632a162.1248 162.1248 0 0 1-25.4464-43.8016 12.1344 12.1344 0 0 1 6.0416-16.4096c6.4512-2.8672 13.0816 0 16.4096 7.0656 1.2288 2.56 2.2272 5.3248 3.4816 7.936 8.192 16.8448 17.4592 32.7168 33.7408 43.52 9.472 6.2208 19.2768 9.472 30.72 7.68 5.3504-0.8448 10.7008-1.6896 16.0512-2.304q27.136-3.1488 54.2976-6.144c10.9312-1.2032 21.8624-2.4064 32.8192-3.4816 8.6784-0.8448 13.4912 2.0992 17.1008 10.112 1.408 3.1232 2.56 6.3488 4.1216 9.3952a18.0736 18.0736 0 0 0 11.2384 9.5488c25.216 7.68 51.5584-6.1696 51.4304-39.9616 0-12.8-7.0144-22.4512-17.92-29.1072a77.3632 77.3632 0 0 0-20.9664-8.5504c-22.4512-5.7856-45.3376-6.144-68.2752-4.992a445.7728 445.7728 0 0 0-61.1584 7.68 14.9248 14.9248 0 0 1-15.9232-7.68 29.0048 29.0048 0 0 1-2.2016-5.504c-4.1472-14.0032-8.1664-28.16-12.3392-42.0608a27.2384 27.2384 0 0 1 0.384-16.9728c4.48-13.3376 8.7808-26.7264 13.1584-40.0896q4.7104-14.3872 9.472-28.7744c2.048-6.1952 6.1696-10.4704 12.8-10.9824a69.2992 69.2992 0 0 0 21.76-6.0672 174.08 174.08 0 0 0 53.3504-35.4816c37.3504-36.1984 54.4768-79.9744 48.3328-132.0448A87.04 87.04 0 0 0 785.92 312.32a105.7024 105.7024 0 0 0-32.8704-19.5072 158.72 158.72 0 0 0-72.7296-10.24 210.432 210.432 0 0 0-68.8384 17.5872c-35.84 16.64-60.2112 43.52-72.4224 81.0752a80.8448 80.8448 0 0 0-3.8912 23.936 111.744 111.744 0 0 0 7.2704 40.2688c9.984 27.3408 25.9328 51.0208 44.6208 73.0624a46.4896 46.4896 0 0 1 5.12 8.704c4.352 8.2944-3.5584 16.8192-11.008 16.6912a49.3312 49.3312 0 0 1-10.624-1.536c-4.3776-1.0496-8.576-2.7904-12.928-3.8912a711.168 711.168 0 0 0-187.4176-22.8096 375.9104 375.9104 0 0 0-71.424 7.68c-23.6288 5.12-46.2848 12.6464-66.944 25.3952a126.4896 126.4896 0 0 0-52.3008 60.288 69.5296 69.5296 0 0 0-5.12 22.0416 98.4576 98.4576 0 0 0 17.92 63.3856A145.7664 145.7664 0 0 0 243.2 739.84c10.7008 5.9648 21.9136 11.0336 32.7424 16.7424a7.3216 7.3216 0 0 0 8.3456-0.7424c11.3408-7.0144 22.8864-13.7472 34.3808-20.48a21.0176 21.0176 0 0 1 5.4528-2.2784 11.8528 11.8528 0 0 1 13.2608 5.9904 11.648 11.648 0 0 1-1.9456 13.9776 18.176 18.176 0 0 1-4.3776 3.1232 316.6464 316.6464 0 0 0-44.928 28.16 132.1728 132.1728 0 0 0-28.9536 28.9792 62.0032 62.0032 0 0 0-10.8032 26.2912c-1.4848 9.5488 0.4352 18.1248 7.552 24.8064a100.6592 100.6592 0 0 0 16.4096 13.1328c25.3184 15.36 52.5056 22.656 82.2528 18.176a134.1184 134.1184 0 0 0 44.16-13.8752 58.3168 58.3168 0 0 0 17.152-13.0304c8.192-9.5744 6.4-19.1488-4.7616-24.8064a48.64 48.64 0 0 0-21.8624-5.4272c-5.6064 0-11.2128 0.256-16.768-0.2048a230.016 230.016 0 0 1-24.1152-2.8928c-6.8352-1.28-11.9808-5.2992-12.8-12.8s3.6096-12.2624 9.7024-15.36a82.5856 82.5856 0 0 1 14.0288-5.632 218.2912 218.2912 0 0 0 48.9984-22.656A160.3584 160.3584 0 0 0 440.32 752.9728a54.4256 54.4256 0 0 0 11.4176-16.3072 25.2416 25.2416 0 0 0 0.128-20.48 70.9376 70.9376 0 0 0-14.8736-22.4 90.9568 90.9568 0 0 0-32.512-20.864c-25.3184-9.8304-51.712-12.5696-78.6688-11.5456a30.5408 30.5408 0 0 1-4.8384 0 12.3392 12.3392 0 0 1-10.9824-11.5456 12.0576 12.0576 0 0 1 10.0096-12.3136 45.184 45.184 0 0 1 7.5264-0.7168 247.168 247.168 0 0 1 42.6496 2.1248 171.9296 171.9296 0 0 1 57.1392 17.4592c21.6064 11.4944 37.8624 27.9552 47.3088 50.816a47.8976 47.8976 0 0 1-1.7408 41.8048 88.8832 88.8832 0 0 1-16.384 22.0928c-1.4848 1.5104-2.8928 3.0464-5.12 5.4784C506.88 787.0976 557.5424 775.68 606.72 752.64zM161.28 688.9472c-1.8688 0.6656-3.072 0.9984-4.224 1.5104a273.4592 273.4592 0 0 0-52.7104 29.5936 162.0736 162.0736 0 0 0-40.96 41.2928 101.2224 101.2224 0 0 0-16.0256 40.3968c-0.5632 3.5072-1.2544 7.1424 1.4592 10.6752a20.3264 20.3264 0 0 0 3.9936-1.152 66.56 66.56 0 0 0 7.936-4.608Q91.648 784.8192 120.576 760.32a47.8208 47.8208 0 0 1 4.5568-3.7888 14.2592 14.2592 0 0 1 15.36-1.0496 14.4128 14.4128 0 0 1 7.9872 13.1584 33.28 33.28 0 0 1-0.512 5.9136c-0.6912 4.4544-1.664 8.8576-2.2528 13.312a35.456 35.456 0 0 0 2.4064 20.7872 280.3456 280.3456 0 0 0 76.288-51.5584C197.376 739.84 175.104 718.4896 161.28 688.9472z m529.0752-19.84h2.3808c15.9232-1.8688 31.7952-4.2496 47.744-5.5552a264.8064 264.8064 0 0 1 72.6784 3.072 13.312 13.312 0 0 0 6.3488-0.1536 104.6784 104.6784 0 0 0 16.128-6.0672c15.36-7.8848 21.1968-20.992 17.6128-37.8624-1.9712-9.216-7.4496-15.1552-16.8192-16.7936a79.0272 79.0272 0 0 0-15.5648-1.2032c-20.48 0.5632-40.96 1.3312-61.5936 2.2016-16.384 0.6912-32.7424 1.5872-49.1264 2.432-6.4768 0.3328-12.9536 0.8192-19.4304 1.1008a5.7856 5.7856 0 0 0-6.144 4.8128 131.9168 131.9168 0 0 1-4.1728 12.8 11.5712 11.5712 0 0 0 0 7.8848c2.56 8.0896 4.8128 16.2304 7.1936 24.3456 0.768 2.9184 1.6896 5.8624 2.6368 9.0112zM92.288 599.04a87.68 87.68 0 0 1 3.968-14.1312 215.6544 215.6544 0 0 1 13.5168-27.0336c16.64-27.0592 37.632-50.6112 59.9552-73.0368a11.7248 11.7248 0 0 1 12.8-3.2256 10.9824 10.9824 0 0 1 7.4496 9.1904 12.0576 12.0576 0 0 1-4.0448 10.6752c-5.888 6.0928-12.032 12.0064-17.4848 18.4832-11.008 13.1328-21.8624 26.3936-32.256 39.9872a183.0656 183.0656 0 0 0-13.0048 21.1712 62.592 62.592 0 0 0-7.8336 22.3232c-0.8448 6.0928-4.3264 9.7792-9.2416 10.6496-7.936 1.408-14.1312-4.096-13.824-15.0528zM952.9856 727.1936a96.7424 96.7424 0 0 1-7.1168 37.8112 199.8592 199.8592 0 0 1-26.88 46.08 11.4688 11.4688 0 0 1-16.64 2.9184c-5.2736-3.9168-5.9904-10.752-1.9968-16.8448 5.9136-9.0368 12.032-17.92 17.5104-27.264a86.7584 86.7584 0 0 0 10.88-28.6464 43.9808 43.9808 0 0 0-0.2048-18.7648 28.3648 28.3648 0 0 0-14.1568-18.2528c-0.9472-0.5376-1.9712-0.896-2.8928-1.4592a11.52 11.52 0 0 1-4.9408-14.9248 11.3408 11.3408 0 0 1 14.976-5.888 46.08 46.08 0 0 1 9.3696 5.2992c15.3088 11.136 22.0416 26.5472 22.0928 39.936zM721.1264 223.2064a11.52 11.52 0 0 1-11.0592-14.8992 23.04 23.04 0 0 1 1.4848-3.4816c12.8-25.4464 25.2928-50.944 38.1696-76.3136a225.28 225.28 0 0 1 11.6224-19.456 10.9568 10.9568 0 0 1 12.0064-5.4272 11.4432 11.4432 0 0 1 7.808 17.2288c-18.688 30.0544-32.9216 62.3616-48.64 93.952-2.9184 5.9392-6.272 8.4224-11.392 8.3968zM887.5776 348.4416c2.0992-0.4352 4.1984-0.7424 6.272-1.3056a589.4144 589.4144 0 0 1 64.6656-14.8736 118.7584 118.7584 0 0 1 30.72-1.664c7.4496 0.768 11.9808 5.5552 11.7504 12.2368a11.1104 11.1104 0 0 1-12.0832 11.1104c-14.2848-1.8944-28.0064 1.2032-41.6768 4.1728-16.8704 3.6608-33.5104 8.3712-50.304 12.3648a34.176 34.176 0 0 1-11.1616 0.8704 11.648 11.648 0 0 1-11.0592-12.3136c0.3072-6.6304 5.4784-11.0336 12.8768-10.5984zM813.3888 242.944a10.9056 10.9056 0 0 1 3.4048-8.2688 18.7904 18.7904 0 0 1 2.9696-2.3296l76.4416-49.152q1.1264-0.7424 2.3296-1.3824c6.7072-3.712 13.568-2.2016 16.9472 3.712s1.3312 12.2368-4.9408 16.2048c-4.2752 2.688-8.6272 5.2736-12.8 7.9872L834.56 250.496a34.5344 34.5344 0 0 1-5.12 2.944 11.4688 11.4688 0 0 1-16.0512-10.496zM590.2848 151.9104a154.0096 154.0096 0 0 0 4.7616 34.7392c3.3536 14.3872 7.3216 28.6208 10.8544 42.9824A21.7088 21.7088 0 0 1 606.72 238.08a10.9056 10.9056 0 0 1-9.6512 8.9088 11.52 11.52 0 0 1-11.9296-6.6304 30.72 30.72 0 0 1-1.5616-4.608A471.04 471.04 0 0 1 568.32 168.96c-0.7936-5.888-1.1008-11.8528-1.3824-17.792a28.16 28.16 0 0 1 0.7168-6.9632 11.4688 11.4688 0 0 1 22.7072 1.8688c0 1.8688-0.0768 3.84-0.0768 5.8368zM956.8768 624.4096c0 0.7936-0.2048 2.56-0.5888 4.3776a11.4944 11.4944 0 0 1-22.7584-1.6896c-0.1536-2.688 0-5.4272-0.4352-8.0896a36.4544 36.4544 0 0 0-10.24-19.328 97.28 97.28 0 0 0-31.0016-21.12c-1.4592-0.6912-3.0208-1.2288-4.4288-1.9712a11.5712 11.5712 0 0 1 7.68-21.6832 11.2128 11.2128 0 0 1 2.048 0.6656c17.1776 7.168 32.7168 16.768 45.0048 31.0016a57.0368 57.0368 0 0 1 14.72 37.8368zM439.296 250.4192a11.6224 11.6224 0 0 1 9.3952 4.4544q21.7344 24.3968 43.52 48.64a42.3936 42.3936 0 0 1 3.5584 4.0448 11.5712 11.5712 0 0 1-16.6144 15.6928 18.4064 18.4064 0 0 1-2.3552-2.2016c-13.6192-14.8736-27.2896-29.696-40.832-44.6464a48.4096 48.4096 0 0 1-6.7072-9.1136 11.3664 11.3664 0 0 1 10.0352-16.8704z" p-id="21002"></path><path d="M606.72 752.64c-49.28 23.1936-100.0192 34.56-155.5712 24.1152 2.3296-2.56 3.7376-3.9936 5.12-5.4784a88.8832 88.8832 0 0 0 16.384-22.0928 47.8976 47.8976 0 0 0 1.7408-41.8048c-9.472-22.8608-25.6-39.3216-47.3088-50.816a171.9296 171.9296 0 0 0-57.1392-17.4592 247.168 247.168 0 0 0-42.6496-2.1248 45.184 45.184 0 0 0-7.5264 0.7168 12.0576 12.0576 0 0 0-10.0096 12.3136 12.3392 12.3392 0 0 0 10.9824 11.5456 30.5408 30.5408 0 0 0 4.8384 0c26.9312-0.9984 53.3248 1.7408 78.6688 11.5456a90.9568 90.9568 0 0 1 32.768 20.6592 70.9376 70.9376 0 0 1 14.8736 22.4 25.2416 25.2416 0 0 1-0.128 20.48 54.4256 54.4256 0 0 1-11.4176 16.3072 160.3584 160.3584 0 0 1-33.92 25.856 218.2912 218.2912 0 0 1-48.9984 22.656 82.5856 82.5856 0 0 0-14.0288 5.632c-6.0928 3.1488-10.5984 7.808-9.7024 15.36s6.0416 11.52 12.8 12.8a230.016 230.016 0 0 0 24.1152 2.8928c5.5552 0.4352 11.1872 0.1536 16.768 0.2048a48.64 48.64 0 0 1 21.8624 5.4272c11.1616 5.6576 12.9792 15.232 4.7616 24.8064a58.3168 58.3168 0 0 1-17.152 13.0304 134.1184 134.1184 0 0 1-44.16 13.8752c-29.7472 4.48-56.96-2.8672-82.2528-18.176a100.6592 100.6592 0 0 1-16.4096-13.1328c-7.1168-6.6816-9.0112-15.36-7.552-24.8064a62.0032 62.0032 0 0 1 10.8032-26.2912 132.1728 132.1728 0 0 1 28.9536-28.9792 316.6464 316.6464 0 0 1 44.928-28.16 18.176 18.176 0 0 0 4.3776-3.1232 11.648 11.648 0 0 0 1.9456-13.9776 11.8528 11.8528 0 0 0-13.2608-5.9904 21.0176 21.0176 0 0 0-5.4528 2.2784c-11.52 6.7584-23.04 13.4656-34.3808 20.48a7.3216 7.3216 0 0 1-8.3456 0.7424c-10.8288-5.5552-22.0416-10.624-32.8448-16.512a145.7664 145.7664 0 0 1-50.9696-45.2096 98.4576 98.4576 0 0 1-17.92-63.3856 69.5296 69.5296 0 0 1 5.12-22.0416 126.4896 126.4896 0 0 1 52.3008-60.288c20.6848-12.8 43.3408-20.48 66.944-25.3952a375.9104 375.9104 0 0 1 71.424-7.68 711.168 711.168 0 0 1 187.4176 22.8096c4.352 1.1008 8.576 2.8416 12.928 3.8912a49.3312 49.3312 0 0 0 10.624 1.536c7.4496 0.128 15.36-8.3968 11.008-16.6912a46.4896 46.4896 0 0 0-5.12-8.704C568.32 496.64 552.3968 472.832 542.4384 445.44a111.744 111.744 0 0 1-7.3984-40.1664 80.8448 80.8448 0 0 1 3.8912-23.936c12.2368-37.6576 36.7104-64.4352 72.4224-81.0752a210.432 210.432 0 0 1 68.8384-17.5872 158.72 158.72 0 0 1 72.7296 10.24A105.7024 105.7024 0 0 1 785.92 312.32a87.04 87.04 0 0 1 29.44 56.8576c6.144 52.0448-10.9824 95.8464-48.3328 132.0448a174.08 174.08 0 0 1-53.3504 35.4816 69.2992 69.2992 0 0 1-21.76 6.0672c-6.5792 0.512-10.6752 4.7616-12.8 10.9824l-9.472 28.7744c-4.3776 13.3632-8.6784 26.752-13.1584 40.0896a27.2384 27.2384 0 0 0-0.384 16.9728c4.1728 14.0032 8.192 28.16 12.3392 42.0608a29.0048 29.0048 0 0 0 2.2016 5.504 14.9248 14.9248 0 0 0 15.9232 7.68 445.7728 445.7728 0 0 1 61.1584-7.68c23.04-1.152 45.824-0.7936 68.2752 4.992a77.3632 77.3632 0 0 1 20.9664 8.5504c10.9824 6.6304 17.92 16.3072 17.92 29.1072 0 33.792-26.24 47.7184-51.4304 39.9616a18.0736 18.0736 0 0 1-11.2384-9.5488c-1.5104-3.072-2.7136-6.272-4.1216-9.3952-3.584-7.9872-8.4224-10.9312-17.1008-10.112-10.9568 1.0496-21.888 2.2528-32.8192 3.4816q-27.1616 3.0208-54.2976 6.144c-5.376 0.6144-10.7264 1.4592-16.0512 2.304-11.3152 1.8176-21.12-1.4336-30.72-7.68-16.2816-10.7008-25.6-26.5728-33.7408-43.52-1.2544-2.56-2.2528-5.3248-3.4816-7.936-3.328-7.0912-9.9584-9.9328-16.4096-7.0656a12.1344 12.1344 0 0 0-6.0416 16.4096 162.1248 162.1248 0 0 0 25.4464 43.8016c1.0496 1.2544 2.0992 2.56 3.0976 3.7632a9.5488 9.5488 0 0 1 0.7424 2.2272z m85.248-282.5984c24.832-0.2304 45.1328-6.912 64.8192-27.2128a147.968 147.968 0 0 0 24.0128-34.0224 141.8752 141.8752 0 0 0 6.8352-14.1056 12.032 12.032 0 0 0-9.1904-16.4608 12.4928 12.4928 0 0 0-13.184 7.3472c-3.8912 7.3216-7.68 14.7712-11.8016 21.888a92.7488 92.7488 0 0 1-19.968 24.0384 53.3504 53.3504 0 0 1-25.9328 12.6464c-23.2192 3.7632-44.8768 0-64.4352-13.6704a130.8928 130.8928 0 0 1-38.8608-43.6992 35.3024 35.3024 0 0 0-3.1232-5.12 12.032 12.032 0 0 0-20.8384 11.0592 27.6992 27.6992 0 0 0 2.432 5.4016 158.1312 158.1312 0 0 0 35.4816 43.9808 109.1328 109.1328 0 0 0 73.8304 27.8272z m21.3504-126.3616c-0.2304 7.4752 2.3296 11.776 7.168 13.8752 7.552 3.2256 15.36-1.2288 16.8704-9.856 1.536-9.2416 2.8672-18.5088 4.0704-27.8016a12.032 12.032 0 0 0-9.8048-13.4656 11.5712 11.5712 0 0 0-13.8496 9.0624c-1.8176 9.7536-3.0976 19.8656-4.3776 28.0832z m-49.4592-3.6352c-0.6912-7.9872-1.2544-16.4352-2.2016-24.832a11.9808 11.9808 0 0 0-13.7728-10.6496 11.8528 11.8528 0 0 0-10.24 12.5696c0.384 8.2688 1.2032 16.512 1.9712 24.7808 0.7168 7.68 5.8112 12.3904 12.544 12.1088s11.9296-5.8624 11.8016-14.08z" fill="#FF9966" p-id="21003"></path><path d="M161.28 688.9472c13.824 29.5424 36.096 50.8928 63.232 68.1472a280.3456 280.3456 0 0 1-76.288 51.5584 35.456 35.456 0 0 1-2.4064-20.7872c0.5888-4.4544 1.536-8.8832 2.2528-13.312a33.28 33.28 0 0 0 0.512-5.9136 14.4128 14.4128 0 0 0-8.064-13.1328 14.2592 14.2592 0 0 0-15.36 1.0496A47.8208 47.8208 0 0 0 120.576 760.32q-28.8768 24.5504-59.8784 46.3104a66.56 66.56 0 0 1-7.936 4.608 20.3264 20.3264 0 0 1-3.9936 1.152c-2.7136-3.5328-1.9968-7.1424-1.4592-10.6752a101.2224 101.2224 0 0 1 16.0256-40.3968 162.0736 162.0736 0 0 1 40.96-41.2928 273.4592 273.4592 0 0 1 52.6336-29.568c1.152-0.4864 2.3552-0.8448 4.352-1.5104zM690.2272 669.1328c-0.9728-3.1488-1.8944-6.0416-2.7648-8.9344-2.4064-8.1152-4.7104-16.256-7.1936-24.3456a11.5712 11.5712 0 0 1 0-7.8848 131.9168 131.9168 0 0 0 4.1728-12.8 5.7856 5.7856 0 0 1 6.144-4.8128c6.4768-0.2816 12.9536-0.768 19.4304-1.1008 16.384-0.8448 32.7424-1.7408 49.1264-2.432 20.48-0.8704 40.96-1.6384 61.5936-2.2016a79.0272 79.0272 0 0 1 15.5648 1.2032c9.3696 1.6384 14.848 7.68 16.8192 16.7936 3.584 16.8704-2.3296 29.9776-17.6128 37.8624a104.6784 104.6784 0 0 1-16.128 6.0672 13.312 13.312 0 0 1-6.3488 0.1536 264.8064 264.8064 0 0 0-72.6784-3.072c-15.9744 1.28-31.8464 3.6608-47.744 5.5552-0.5376 0-1.0752-0.0512-2.3808-0.0512zM768.2304 319.0784s-33.8432-38.0672-76.1344-25.3696-42.2912 0-42.2912 0-76.1344 46.5152-84.48 67.6608-21.1456 105.728 29.5936 126.8736 152.2432 0 152.2432 0l54.9888-63.4368-8.5504-63.4368z" fill="#FF9966" p-id="21004"></path><path d="M610.8672 366.3616a8.8064 8.8064 0 0 1 0-17.5872 75.264 75.264 0 0 0 9.6-0.6656l-4.8128-3.6096a8.8064 8.8064 0 0 1 10.5472-14.08l20.1216 15.0784a8.8064 8.8064 0 0 1-2.56 15.36 118.0928 118.0928 0 0 1-32.896 5.504zM741.6064 366.3616a118.0928 118.0928 0 0 1-32.9472-5.4016 8.8064 8.8064 0 0 1-2.56-15.36l20.1216-15.0784a8.8064 8.8064 0 1 1 10.5472 14.08l-4.736 3.5584a75.264 75.264 0 0 0 9.6 0.6656 8.8064 8.8064 0 0 1 0 17.5872zM614.0928 467.0976c-6.8096 0-16.5632-2.56-24.576-14.3104a29.5936 29.5936 0 0 1-1.2288-31.3088c11.52-21.76 47.3344-36.9408 87.04-36.9408a164.864 164.864 0 0 1 24.064 1.792c34.2528 5.12 54.6048 15.36 62.208 31.7952a33.28 33.28 0 0 1-2.0736 31.4624A31.2832 31.2832 0 0 1 732.16 463.872c-10.496 0-21.888-4.3776-32.9216-12.8a43.1104 43.1104 0 0 0-25.9584-9.472 41.216 41.216 0 0 0-19.5072 5.12 97.7152 97.7152 0 0 0-10.24 6.9376c-8.9088 6.5792-18.0736 13.3376-29.568 13.3632z m61.2352-61.6192c-37.8624 0-62.8736 15.0784-68.5568 25.8048a8.6016 8.6016 0 0 0 0 9.7536c3.456 5.12 6.2208 5.12 7.2704 5.12 4.608 0 10.6752-4.48 17.1008-9.216a113.2032 113.2032 0 0 1 12.8-8.5248 62.1824 62.1824 0 0 1 29.5424-7.68 63.5136 63.5136 0 0 1 38.528 13.7984c7.2704 5.4528 14.4896 8.4736 20.3264 8.4736a10.8032 10.8032 0 0 0 9.3696-4.2496 12.2624 12.2624 0 0 0 0.9728-11.6992c-2.56-5.248-11.7248-14.8224-46.3104-19.9424a144.0512 144.0512 0 0 0-21.0432-1.6384z" p-id="21005"></path></svg>