<?xml version="1.0" standalone="no"?><!DOCTYPE svg PUBLIC "-//W3C//DTD SVG 1.1//EN" "http://www.w3.org/Graphics/SVG/1.1/DTD/svg11.dtd"><svg t="1693601359215" class="icon" viewBox="0 0 1024 1024" version="1.1" xmlns="http://www.w3.org/2000/svg" p-id="4279" xmlns:xlink="http://www.w3.org/1999/xlink" width="200" height="200"><path d="M889.386667 807.317333c-65.6 78.890667-158.506667 120.298667-257.6 129.109334h-0.298667c-4.778667 0.533333-9.557333 0.853333-14.336 1.066666-0.426667 0.106667-0.810667 0.106667-1.237333 0.106667-0.405333 0.426667-1.322667 0.426667-1.706667 0.426667-4.586667 0.213333-9.173333 0.426667-13.76 0.512-46.378667 1.066667-93.696-4.970667-139.882667-17.301334-0.512-0.106667-1.109333-0.32-1.621333-0.426666-5.610667-1.493333-11.2-3.072-16.789333-4.906667-5.184-1.450667-10.474667-3.157333-15.68-4.970667a29.461333 29.461333 0 0 0-2.133334-0.64c-7.616-2.645333-15.146667-5.504-22.570666-8.490666a388.224 388.224 0 0 1-18.133334-7.637334 516.394667 516.394667 0 0 1-111.509333-65.621333c-0.896-0.746667-1.92-1.493333-2.837333-2.346667a72.576 72.576 0 0 1-4.778667-3.712c-51.264-40.981333-95.232-92.373333-126.976-153.002666-144.661333-275.114667 39.786667-487.68 207.36-498.005334 3.648-0.213333 7.210667-0.32 10.773333-0.32h9.664c148.757333-7.850667 310.912 77.845333 424.064 194.538667 1.408 1.386667 2.730667 2.773333 4.053334 4.245333 5.610667 5.738667 10.986667 11.669333 16.277333 17.621334 121.088 134.741333 176.128 303.573333 79.68 419.733333" fill="#FFD066" p-id="4280"></path><path d="M253.76 813.653333a484.224 484.224 0 0 1-103.744-121.856c4.885333-174.464 35.690667-362.709333 98.986667-390.848 64.746667 287.146667 52.010667 439.893333 4.757333 512.704z" fill="#E97286" p-id="4281"></path><path d="M238.506667 800.213333L197.610667 183.125333A56.213333 56.213333 0 0 1 250.026667 123.306667L758.656 89.6a56.234667 56.234667 0 0 1 59.818667 52.394667l45.845333 692.394666c-37.930667 36.821333-82.730667 63.402667-131.306667 80.426667l-232.554666 15.424a530.56 530.56 0 0 1-58.304-14.336c-5.184-1.493333-10.474667-3.2-15.68-4.992a29.461333 29.461333 0 0 0-2.133334-0.64c-7.616-2.645333-15.146667-5.504-22.570666-8.490667a388.224 388.224 0 0 1-18.133334-7.637333 516.394667 516.394667 0 0 1-112.341333-66.304 31.573333 31.573333 0 0 1-2.005333-1.664 504.682667 504.682667 0 0 1-30.805334-26.005333z" fill="#7E4EE3" p-id="4282"></path><path d="M230.72 181.12c181.162667-12.864 362.346667-25.706667 543.530667-38.528L825.6 870.165333l-530.688 25.664-64.213333-714.730666" fill="#FFFFFF" p-id="4283"></path><path d="M267.242667 824.704a487.573333 487.573333 0 0 1-110.272-121.578667c8.896-80.832 44.053333-126.890667 78.250666-171.690666 16.064-21.034667 31.914667-41.792 44.714667-65.728 49.216-92.010667 106.986667-87.530667 12.842667 97.472-15.829333 31.189333-8.96 59.306667-1.28 90.752 10.88 44.373333 23.338667 95.317333-24.234667 170.773333z" fill="#F69C93" p-id="4284"></path><path d="M714.24 347.690667l-228.608 21.162666a15.104 15.104 0 0 1-16.426667-13.653333l-3.093333-33.344a15.104 15.104 0 0 1 13.653333-16.426667l228.586667-21.162666c8.32-0.768 15.658667 5.333333 16.426667 13.653333l3.093333 33.344a15.104 15.104 0 0 1-13.653333 16.426667z m17.770667 188.224l-234.474667 15.530666a14.378667 14.378667 0 0 1-15.296-13.397333l-2.325333-34.858667a14.4 14.4 0 0 1 13.397333-15.317333l234.474667-15.509333a14.378667 14.378667 0 0 1 15.296 13.397333l2.325333 34.858667a14.378667 14.378667 0 0 1-13.397333 15.296zM514.304 752.64l235.733333-19.925333a13.930667 13.930667 0 0 0 12.714667-15.082667l-3.029333-35.669333a13.930667 13.930667 0 0 0-15.061334-12.714667l-235.733333 19.925333a13.952 13.952 0 0 0-12.714667 15.061334l3.008 35.690666c0.682667 7.68 7.424 13.354667 15.082667 12.714667z" fill="#D5CFE3" p-id="4285"></path><path d="M409.706667 360.021333a52.842667 52.842667 0 1 1-105.706667 0 52.842667 52.842667 0 0 1 105.706667 0z m17.941333 191.722667a52.864 52.864 0 1 1-105.728 0 52.864 52.864 0 0 1 105.728 0z m-35.392 236.224a52.864 52.864 0 1 0 0-105.706667 52.864 52.864 0 0 0 0 105.706667z" fill="#E7E1F4" p-id="4286"></path><path d="M318.72 357.653333c-7.765333-8.938667 10.56-23.466667 20.16-12.565333 1.813333 2.069333 3.477333 4.288 5.098667 6.421333 6.933333 9.173333 12.586667 16.64 21.333333 1.877334 10.816-18.218667 42.048-56.149333 50.986667-64.384 8.96-8.256 37.76 1.066667 21.653333 20.48-16.128 19.456-44.928 56.533333-53.653333 70.528-8.704 13.973333-21.546667 23.978667-36.181334 7.104-14.592-16.874667-29.397333-29.44-29.397333-29.44z m16.170667 192.64c-8.661333-8.064 8-24.469333 18.709333-14.634666 2.005333 1.856 3.904 3.904 5.738667 5.845333 7.872 8.405333 14.272 15.232 21.44-0.384 8.810667-19.264 35.84-60.288 43.882666-69.44 8.042667-9.130667 37.653333-2.901333 23.68 18.112-13.952 21.034667-38.677333 60.949333-45.866666 75.797333-7.189333 14.805333-18.922667 26.112-35.242667 10.88-16.298667-15.232-32.341333-26.176-32.341333-26.176z m36.778666 170.624c-9.514667-10.986667-27.946667 3.413333-20.224 12.416 0 0 14.698667 12.693333 29.184 29.653334 14.506667 16.981333 27.413333 7.082667 36.224-6.826667 8.810667-13.952 37.888-50.816 54.144-70.122667 16.256-19.306667-12.48-28.864-21.482666-20.693333-9.002667 8.192-40.533333 45.909333-51.456 64.042667-8.874667 14.72-14.464 7.210667-21.333334-2.005334a113.429333 113.429333 0 0 0-5.056-6.464z" fill="#00C6CD" p-id="4287"></path><path d="M596.330667 76.842667c-49.28-118.912-162.261333-53.845333-183.210667 11.050666-30.826667 1.664-56.277333 2.901333-69.994667 3.328h-0.362666c-6.4 0.213333-18.133333 0.576-25.642667 8.704-19.072 20.693333 6.186667 73.301333 20.949333 100.437334A1266.901333 1266.901333 0 0 0 682.24 177.301333c17.109333-57.301333 21.397333-109.610667-21.397333-105.344-11.242667 1.130667-34.858667 2.88-64.512 4.885334z m-90.453334 0.298666c-1.685333 0-3.904 0.085333-6.485333 0.170667-19.072 0.682667-57.493333 2.048-38.421333-22.570667 25.173333-32.533333 74.133333-30.933333 89.813333-4.906666 15.68 26.026667-30.826667 27.306667-44.906667 27.306666z" fill="#3D3450" p-id="4288"></path><path d="M853.333333 1024a170.666667 170.666667 0 1 0 0-341.333333 170.666667 170.666667 0 0 0 0 341.333333z" fill="#00C572" p-id="4289"></path><path d="M940.949333 775.594667a21.333333 21.333333 0 1 1 29.312 30.997333l-29.312-30.997333z m-158.869333 60.928l5.653333 7.744a34888.682667 34888.682667 0 0 1 33.6 46.165333 13361.194667 13361.194667 0 0 1 116.608-112l3.008-2.837333 29.312 30.997333-2.986666 2.816a18188.8 18188.8 0 0 0-39.018667 37.184 12770.176 12770.176 0 0 0-94.805333 91.626667 21.333333 21.333333 0 0 1-32.213334-2.773334 13303.381333 13303.381333 0 0 0-47.978666-66.026666l-5.632-7.701334 34.453333-25.173333z m0 0a21.333333 21.333333 0 1 0-34.453333 25.173333l34.453333-25.173333z" fill="#FFFFFF" p-id="4290"></path></svg>